<svg width="292" height="326" viewBox="0 0 292 326" fill="none" xmlns="http://www.w3.org/2000/svg">
<path d="M267.01 0C267.606 1.6261 268.693 3.54314 268.187 4.83483C260.116 25.4087 251.924 45.9367 243.52 66.3766C242.314 69.3109 242.386 70.804 244.919 72.9906C280.841 104.01 295.185 143.713 290.491 190.325C285.913 235.791 263.043 269.918 223.384 292.419C196.369 307.747 166.894 312.494 136.149 310.539C120.763 309.56 105.857 306.439 91.3591 301.148C89.973 300.642 87.3463 301.656 86.146 302.832C79.1315 309.704 72.3409 316.807 65.5437 323.898C63.7059 325.815 62.1735 326.69 60.6204 323.353C144.323 240.563 208.412 144.58 252.631 35.4347C252.273 35.1896 251.914 34.9445 251.556 34.6994C250.825 35.7135 250.014 36.6796 249.374 37.7484C202.933 115.343 144.192 182.122 72.3765 237.071C50.743 253.624 27.5245 268.107 5.00513 283.498C3.19147 284.738 0.951172 286.749 0 282.281C11.125 275.169 22.305 268.022 32.9896 261.192C27.007 250.718 20.2539 241.102 15.6895 230.54C-10.7393 169.387 6.74713 87.9609 81.457 54.0424C130.208 31.9096 179.062 34.263 226.452 59.8328C227.466 60.3802 228.51 60.8742 230.566 61.9102C242.387 41.4366 254.172 21.0253 266.108 0.306987C266.26 5.99027e-06 266.76 6e-06 267.01 0ZM72.5058 148.865C65.5419 175.157 67.6873 200.116 83.209 223.762C125.249 189.727 162.446 151.759 195.433 109.572C184.556 101.143 173.487 96.7646 157.89 94.5512C120.164 89.1975 83.5402 112.258 72.5058 148.865ZM212.33 129.301C188.156 173.209 160.304 214.668 128.873 253.72C129.549 254.241 129.779 254.555 130.063 254.617C159.741 261.053 192.957 251.818 212.385 223.639C228.103 200.841 230.58 175.734 223.222 149.649C221.136 142.252 216.317 135.626 212.33 129.301Z" fill="black"/>
</svg>
